<svg version="1.1" viewBox="0.0 0.0 150.0 150.0" fill="none" stroke="none" stroke-linecap="square" stroke-miterlimit="10" xmlns:xlink="http://www.w3.org/1999/xlink" xmlns="http://www.w3.org/2000/svg"><clipPath id="p.0"><path d="m0 0l150.0 0l0 150.0l-150.0 0l0 -150.0z" clip-rule="nonzero"/></clipPath><g clip-path="url(#p.0)"><path fill="#000000" fill-opacity="0.0" d="m0 0l150.0 0l0 150.0l-150.0 0z" fill-rule="evenodd"/><path fill="#000000" fill-opacity="0.0" d="m51.77277 38.039745l98.17323 99.08661" fill-rule="evenodd"/><path stroke="#4a42ff" stroke-width="1.5931758530183726" stroke-linejoin="round" stroke-linecap="butt" d="m51.77277 38.039745l98.17323 99.08661" fill-rule="evenodd"/><path fill="#0080ff" d="m0 12.62205l39.283466 0l0 37.866142l-39.283466 0z" fill-rule="evenodd"/><path fill="#0066cb" d="m39.283466 12.62205l12.622044 -12.622047l0 37.866142l-12.622044 12.622047z" fill-rule="evenodd"/><path fill="#3399ff" d="m0 12.62205l12.622047 -12.622047l39.283463 0l-12.622044 12.622047z" fill-rule="evenodd"/><path fill="#000000" fill-opacity="0.0" d="m0 12.62205l12.622047 -12.622047l39.283463 0l0 37.866142l-12.622044 12.622047l-39.283466 0zm0 0l39.283466 0l12.622044 -12.622047m-12.622044 12.622047l0 37.866142" fill-rule="evenodd"/><path stroke="#000000" stroke-width="0.5826771653543307" stroke-linejoin="round" stroke-linecap="butt" d="m0 12.62205l12.622047 -12.622047l39.283463 0l0 37.866142l-12.622044 12.622047l-39.283466 0zm0 0l39.283466 0l12.622044 -12.622047m-12.622044 12.622047l0 37.866142" fill-rule="evenodd"/><path fill="#9900ff" d="m97.68032 112.13588l39.283455 0l0 37.86615l-39.283455 0z" fill-rule="evenodd"/><path fill="#7a00cb" d="m136.96378 112.13588l12.622055 -12.622047l0 37.866142l-12.622055 12.622055z" fill-rule="evenodd"/><path fill="#ad33ff" d="m97.68032 112.13588l12.622047 -12.622047l39.283463 0l-12.622055 12.622047z" fill-rule="evenodd"/><path fill="#000000" fill-opacity="0.0" d="m97.68032 112.13588l12.622047 -12.622047l39.283463 0l0 37.866142l-12.622055 12.622055l-39.283455 0zm0 0l39.283455 0l12.622055 -12.622047m-12.622055 12.622047l0 37.86615" fill-rule="evenodd"/><path stroke="#000000" stroke-width="0.5826771653543307" stroke-linejoin="round" stroke-linecap="butt" d="m97.68032 112.13588l12.622047 -12.622047l39.283463 0l0 37.866142l-12.622055 12.622055l-39.283455 0zm0 0l39.283455 0l12.622055 -12.622047m-12.622055 12.622047l0 37.86615" fill-rule="evenodd"/><path fill="#000000" fill-opacity="0.0" d="m39.03526 13.266421l98.17322 99.08662" fill-rule="evenodd"/><path stroke="#4a42ff" stroke-width="1.5931758530183726" stroke-linejoin="round" stroke-linecap="butt" d="m39.03526 13.266421l98.17322 99.08662" fill-rule="evenodd"/><path fill="#000000" fill-opacity="0.0" d="m51.822266 0.5668858l98.17323 99.08662" fill-rule="evenodd"/><path stroke="#4a42ff" stroke-width="1.5931758530183726" stroke-linejoin="round" stroke-linecap="butt" d="m51.822266 0.5668858l98.17323 99.08662" fill-rule="evenodd"/><path fill="#000000" fill-opacity="0.0" d="m5.2230974E-4 50.918133l98.17323 99.08661" fill-rule="evenodd"/><path stroke="#4a42ff" stroke-width="1.5931758530183726" stroke-linejoin="round" stroke-linecap="butt" d="m5.2230974E-4 50.918133l98.17323 99.08661" fill-rule="evenodd"/><path fill="#000000" fill-opacity="0.0" d="m38.56778 50.51701l98.17323 99.08661" fill-rule="evenodd"/><path stroke="#4a42ff" stroke-width="1.5931758530183726" stroke-linejoin="round" stroke-linecap="butt" d="m38.56778 50.51701l98.17323 99.08661" fill-rule="evenodd"/><path fill="#000000" fill-opacity="0.0" d="m0.7839197 12.9997225l98.173225 99.08661" fill-rule="evenodd"/><path stroke="#4a42ff" stroke-width="1.5931758530183726" stroke-linejoin="round" stroke-linecap="butt" d="m0.7839197 12.9997225l98.173225 99.08661" fill-rule="evenodd"/></g></svg>